<svg xmlns="http://www.w3.org/2000/svg" xmlns:xlink="http://www.w3.org/1999/xlink" width="366" zoomAndPan="magnify" viewBox="0 0 274.5 274.5" height="366" preserveAspectRatio="xMidYMid meet" version="1.0"><defs><g/><clipPath id="1c0cac88d8"><path d="M 74.171875 83.417969 L 260.472656 83.417969 L 260.472656 269.722656 L 74.171875 269.722656 Z M 74.171875 83.417969 " clip-rule="nonzero"/></clipPath><clipPath id="50902ac95e"><path d="M 167.320312 83.417969 C 115.875 83.417969 74.171875 125.125 74.171875 176.570312 C 74.171875 228.015625 115.875 269.722656 167.320312 269.722656 C 218.769531 269.722656 260.472656 228.015625 260.472656 176.570312 C 260.472656 125.125 218.769531 83.417969 167.320312 83.417969 Z M 167.320312 83.417969 " clip-rule="nonzero"/></clipPath><clipPath id="e092985a4d"><path d="M 0.171875 0.417969 L 186.472656 0.417969 L 186.472656 186.722656 L 0.171875 186.722656 Z M 0.171875 0.417969 " clip-rule="nonzero"/></clipPath><clipPath id="91c65696af"><path d="M 93.320312 0.417969 C 41.875 0.417969 0.171875 42.125 0.171875 93.570312 C 0.171875 145.015625 41.875 186.722656 93.320312 186.722656 C 144.769531 186.722656 186.472656 145.015625 186.472656 93.570312 C 186.472656 42.125 144.769531 0.417969 93.320312 0.417969 Z M 93.320312 0.417969 " clip-rule="nonzero"/></clipPath><clipPath id="2d66200b1b"><rect x="0" width="187" y="0" height="187"/></clipPath><clipPath id="06336890d2"><path d="M 11.691406 4.28125 L 197.992188 4.28125 L 197.992188 190.582031 L 11.691406 190.582031 Z M 11.691406 4.28125 " clip-rule="nonzero"/></clipPath><clipPath id="c41b563f0f"><path d="M 104.84375 4.28125 C 53.398438 4.28125 11.691406 45.984375 11.691406 97.429688 C 11.691406 148.875 53.398438 190.582031 104.84375 190.582031 C 156.289062 190.582031 197.992188 148.875 197.992188 97.429688 C 197.992188 45.984375 156.289062 4.28125 104.84375 4.28125 Z M 104.84375 4.28125 " clip-rule="nonzero"/></clipPath><clipPath id="8181e5fb15"><path d="M 0.691406 0.28125 L 186.992188 0.28125 L 186.992188 186.582031 L 0.691406 186.582031 Z M 0.691406 0.28125 " clip-rule="nonzero"/></clipPath><clipPath id="ae6194f663"><path d="M 93.84375 0.28125 C 42.398438 0.28125 0.691406 41.984375 0.691406 93.429688 C 0.691406 144.875 42.398438 186.582031 93.84375 186.582031 C 145.289062 186.582031 186.992188 144.875 186.992188 93.429688 C 186.992188 41.984375 145.289062 0.28125 93.84375 0.28125 Z M 93.84375 0.28125 " clip-rule="nonzero"/></clipPath><clipPath id="c59ac05177"><rect x="0" width="187" y="0" height="187"/></clipPath><clipPath id="acf18c392a"><path d="M 7.320312 8.652344 L 193.621094 8.652344 L 193.621094 194.953125 L 7.320312 194.953125 Z M 7.320312 8.652344 " clip-rule="nonzero"/></clipPath><clipPath id="73274fa725"><path d="M 100.46875 8.652344 C 49.023438 8.652344 7.320312 50.355469 7.320312 101.800781 C 7.320312 153.25 49.023438 194.953125 100.46875 194.953125 C 151.917969 194.953125 193.621094 153.25 193.621094 101.800781 C 193.621094 50.355469 151.917969 8.652344 100.46875 8.652344 Z M 100.46875 8.652344 " clip-rule="nonzero"/></clipPath><clipPath id="f6979fb45a"><path d="M 0.320312 0.652344 L 186.621094 0.652344 L 186.621094 186.953125 L 0.320312 186.953125 Z M 0.320312 0.652344 " clip-rule="nonzero"/></clipPath><clipPath id="2906791698"><path d="M 93.46875 0.652344 C 42.023438 0.652344 0.320312 42.355469 0.320312 93.800781 C 0.320312 145.25 42.023438 186.953125 93.46875 186.953125 C 144.917969 186.953125 186.621094 145.25 186.621094 93.800781 C 186.621094 42.355469 144.917969 0.652344 93.46875 0.652344 Z M 93.46875 0.652344 " clip-rule="nonzero"/></clipPath><clipPath id="d31f7c1968"><rect x="0" width="187" y="0" height="187"/></clipPath><clipPath id="5fe11fa195"><path d="M 77.816406 77.941406 L 266.679688 77.941406 L 266.679688 266.804688 L 77.816406 266.804688 Z M 77.816406 77.941406 " clip-rule="nonzero"/></clipPath><clipPath id="c1b0deab64"><path d="M 172.25 77.941406 C 120.09375 77.941406 77.816406 120.21875 77.816406 172.375 C 77.816406 224.527344 120.09375 266.804688 172.25 266.804688 C 224.402344 266.804688 266.679688 224.527344 266.679688 172.375 C 266.679688 120.21875 224.402344 77.941406 172.25 77.941406 Z M 172.25 77.941406 " clip-rule="nonzero"/></clipPath><clipPath id="13fa40a898"><path d="M 0.816406 0.941406 L 189.679688 0.941406 L 189.679688 189.804688 L 0.816406 189.804688 Z M 0.816406 0.941406 " clip-rule="nonzero"/></clipPath><clipPath id="c1924c1e49"><path d="M 95.25 0.941406 C 43.09375 0.941406 0.816406 43.21875 0.816406 95.375 C 0.816406 147.527344 43.09375 189.804688 95.25 189.804688 C 147.402344 189.804688 189.679688 147.527344 189.679688 95.375 C 189.679688 43.21875 147.402344 0.941406 95.25 0.941406 Z M 95.25 0.941406 " clip-rule="nonzero"/></clipPath><clipPath id="fe18c689e9"><rect x="0" width="190" y="0" height="190"/></clipPath><clipPath id="b5e6136ffc"><rect x="0" width="213" y="0" height="201"/></clipPath></defs><path fill="#ffffff" d="M 0 0 L 274 0 L 274 274 L 0 274 Z M 0 0 " fill-opacity="1" fill-rule="nonzero"/><path fill="#ffffff" d="M 0 0 L 274 0 L 274 274 L 0 274 Z M 0 0 " fill-opacity="1" fill-rule="nonzero"/><g clip-path="url(#1c0cac88d8)"><g clip-path="url(#50902ac95e)"><g transform="matrix(1, 0, 0, 1, 74, 83)"><g clip-path="url(#2d66200b1b)"><g clip-path="url(#e092985a4d)"><g clip-path="url(#91c65696af)"><path fill="#545454" d="M 0.171875 0.417969 L 186.472656 0.417969 L 186.472656 186.722656 L 0.171875 186.722656 Z M 0.171875 0.417969 " fill-opacity="1" fill-rule="nonzero"/></g></g></g></g></g></g><g clip-path="url(#06336890d2)"><g clip-path="url(#c41b563f0f)"><g transform="matrix(1, 0, 0, 1, 11, 4)"><g clip-path="url(#c59ac05177)"><g clip-path="url(#8181e5fb15)"><g clip-path="url(#ae6194f663)"><path fill="#003a89" d="M 0.691406 0.28125 L 186.992188 0.28125 L 186.992188 186.582031 L 0.691406 186.582031 Z M 0.691406 0.28125 " fill-opacity="1" fill-rule="nonzero"/></g></g></g></g></g></g><g clip-path="url(#acf18c392a)"><g clip-path="url(#73274fa725)"><g transform="matrix(1, 0, 0, 1, 7, 8)"><g clip-path="url(#d31f7c1968)"><g clip-path="url(#f6979fb45a)"><g clip-path="url(#2906791698)"><path fill="#004aad" d="M 0.320312 0.652344 L 186.621094 0.652344 L 186.621094 186.953125 L 0.320312 186.953125 Z M 0.320312 0.652344 " fill-opacity="1" fill-rule="nonzero"/></g></g></g></g></g></g><g clip-path="url(#5fe11fa195)"><g clip-path="url(#c1b0deab64)"><g transform="matrix(1, 0, 0, 1, 77, 77)"><g clip-path="url(#fe18c689e9)"><g clip-path="url(#13fa40a898)"><g clip-path="url(#c1924c1e49)"><path fill="#5170ff" d="M 0.816406 0.941406 L 189.679688 0.941406 L 189.679688 189.804688 L 0.816406 189.804688 Z M 0.816406 0.941406 " fill-opacity="1" fill-rule="nonzero"/></g></g></g></g></g></g><g transform="matrix(1, 0, 0, 1, 15, 34)"><g clip-path="url(#b5e6136ffc)"><g fill="#ffffff" fill-opacity="1"><g transform="translate(0.93584, 158.116742)"><g><path d="M 43.03125 0 L 55.5 -54 L 27.421875 -113 L 57.15625 -113 L 72.609375 -73.953125 L 106.015625 -113 L 135.765625 -113 L 80.421875 -54 L 67.96875 0 Z M 43.03125 0 "/></g></g></g><g fill="#ffffff" fill-opacity="1"><g transform="translate(109.268056, 158.116742)"><g><path d="M 72.125 -33.0625 C 73.007812 -36.71875 72.398438 -39.898438 70.296875 -42.609375 C 68.191406 -45.328125 65.253906 -46.6875 61.484375 -46.6875 L 45.703125 -46.6875 L 39.375 -19.4375 L 55.171875 -19.4375 C 58.929688 -19.4375 62.472656 -20.765625 65.796875 -23.421875 C 69.128906 -26.085938 71.238281 -29.300781 72.125 -33.0625 Z M 75.28125 -80.265625 C 76.050781 -83.921875 75.4375 -87.019531 73.4375 -89.5625 C 71.445312 -92.113281 68.679688 -93.390625 65.140625 -93.390625 L 56.5 -93.390625 L 50.34375 -67.140625 L 58.984375 -67.140625 C 62.640625 -67.140625 66.046875 -68.4375 69.203125 -71.03125 C 72.367188 -73.632812 74.394531 -76.710938 75.28125 -80.265625 Z M 97.375 -32.40625 C 95.15625 -22.65625 90.363281 -14.816406 83 -8.890625 C 75.632812 -2.960938 66.523438 0 55.671875 0 L 9.96875 0 L 36.0625 -113 L 74.9375 -113 C 81.363281 -113 86.65625 -111.722656 90.8125 -109.171875 C 94.96875 -106.628906 97.820312 -103.222656 99.375 -98.953125 C 100.925781 -94.691406 101.144531 -89.957031 100.03125 -84.75 C 98.707031 -78.988281 96.382812 -74.03125 93.0625 -69.875 C 89.738281 -65.71875 85.691406 -62.695312 80.921875 -60.8125 C 86.910156 -59.375 91.59375 -56.191406 94.96875 -51.265625 C 98.34375 -46.335938 99.144531 -40.050781 97.375 -32.40625 Z M 97.375 -32.40625 "/></g></g></g></g></g></svg>